PathFileType	4	(x/y/z)	S08_PSF_T05
DataRate	CameraRate	NumFrames	NumMarkers	Units	OrigDataRate	OrigDataStartFrame	OrigNumFrames
240	240	10	51	mm	240	53	418
Frame#	Time	Sternum			R.Acromium			L.Acromium			Top.Head			R.ASIS			L.ASIS			R.PSIS			L.PSIS			R.Great.Tro			L.Great.Tro			R.Iliac.Crest			L.Iliac.Crest			V.Sacral			R.Thigh.Upper.Post			R.Thigh.Lower.Ant			R.Thigh.Lower.Post			R.Thigh.Upper.Ant			R.Knee.Lat			R.Knee.Med			R.Shank.Upper.Post			R.Shank.Lower.Ant			R.Shank.Lower.Post			R.Shank.Upper.Ant			R.Ankle.Lat			R.Ankle.Med			R.Heel.Upper			R.Heel.Med			R.Heel.Lat			R.Toe.Lat			R.Toe.Med			R.Toe.Tip			L.Thigh.Upper.Post			L.Thigh.Lower.Ant			L.Thigh.Lower.Post			L.Thigh.Upper.Ant			L.Knee.Lat			L.Knee.Med			L.Shank.Upper.Post			L.Shank.Lower.Ant			L.Shank.Lower.Post			L.Shank.Upper.Ant			L.Ankle.Lat			L.Ankle.Med			L.Heel.Upper			L.Heel.Med			L.Heel.Lat			L.Toe.Lat			L.Toe.Med			L.Toe.Tip			Cervical.Spine			Back			
		X1	Y1	Z1	X2	Y2	Z2	X3	Y3	Z3	X4	Y4	Z4	X5	Y5	Z5	X6	Y6	Z6	X7	Y7	Z7	X8	Y8	Z8	X9	Y9	Z9	X10	Y10	Z10	X11	Y11	Z11	X12	Y12	Z12	X13	Y13	Z13	X14	Y14	Z14	X15	Y15	Z15	X16	Y16	Z16	X17	Y17	Z17	X18	Y18	Z18	X19	Y19	Z19	X20	Y20	Z20	X21	Y21	Z21	X22	Y22	Z22	X23	Y23	Z23	X24	Y24	Z24	X25	Y25	Z25	X26	Y26	Z26	X27	Y27	Z27	X28	Y28	Z28	X29	Y29	Z29	X30	Y30	Z30	X31	Y31	Z31	X32	Y32	Z32	X33	Y33	Z33	X34	Y34	Z34	X35	Y35	Z35	X36	Y36	Z36	X37	Y37	Z37	X38	Y38	Z38	X39	Y39	Z39	X40	Y40	Z40	X41	Y41	Z41	X42	Y42	Z42	X43	Y43	Z43	X44	Y44	Z44	X45	Y45	Z45	X46	Y46	Z46	X47	Y47	Z47	X48	Y48	Z48	X49	Y49	Z49	X50	Y50	Z50	X51	Y51	Z51	

53	0.21667	-1076.4	1233.1	304.15	-1202.4	1468.7	475.33	-1214.9	1494.6	139.55	-1202	1786.7	319.42	-1100.5	1012.2	409.76	-1092.6	1026.5	179.14	NaN	NaN	NaN	NaN	NaN	NaN	-1172.1	896.18	472.57	-1181.7	920.73	106.88	-1202.9	1079.2	455.79	-1188.7	1107.2	149.15	-1316.1	1002.4	279.75	-1157.7	698.41	464	-1063.7	611.51	452.59	-1136.2	610	449.19	-1079.4	704.33	464.02	-1088.3	512.13	447.5	-1097.5	508.57	312.76	-1255.7	433.31	455.53	-1263.3	343.87	436.6	NaN	NaN	NaN	-1206.7	392.45	444.41	-1446.3	283.88	422.89	-1413.5	263.17	344.16	-1491.1	310.55	372.11	-1505.2	290.26	344.4	-1508.2	296.51	404.61	-1454.4	129.51	445.12	-1431.2	122.91	331.28	-1383.3	68.09	374.89	-1166.4	709.37	125.45	-1067.9	633.42	150.42	-1136.4	624.73	144.8	-1093.5	716.21	125.13	-1105.1	523.93	169.62	-1102.9	527.84	293.58	-1159.8	340.84	175.09	-1088	257.92	198.25	-1161.3	267.94	193.93	-1094.3	330.91	180.15	-1135.2	96.14	213.9	-1107.1	108.93	300.13	-1180.3	73.509	267.55	-1167.5	41.102	298.27	-1173.4	47.292	234.77	-998.37	40.292	201.31	-980.17	53.958	314.54	-918.19	71.987	265.55	-1273.9	1523.7	300.25	-1319.1	1239.2	313.47
54	0.22083	-1071.3	1233.9	303.99	-1197.3	1469.5	475.12	-1209.6	1495.5	139.39	-1196.3	1787.5	319.19	-1095.4	1013.2	409.5	-1087.4	1027.2	178.87	NaN	NaN	NaN	NaN	NaN	NaN	-1166.5	897.23	472.34	-1177	921.36	106.61	-1197.9	1080.1	455.49	-1183.6	1108	148.81	-1311	1003.2	279.43	-1149.3	699.51	463.58	-1054.2	613.68	452	-1126.8	611.36	448.69	-1071.1	706.34	463.51	-1077.7	514.11	446.96	-1087.4	510.47	312.07	-1243.9	434.01	455.2	-1251.8	344.69	436.19	NaN	NaN	NaN	-1195.2	393.74	443.83	-1434.3	283.66	422.64	-1401.7	263.32	344	-1480.5	309.21	372.07	-1494.2	288.35	344.49	-1496.9	294.81	404.66	-1439.3	129.45	445.89	-1416.6	122.72	331.92	-1368.5	68.833	375.8	-1163.1	710.02	125.18	-1065.2	633.33	150.22	-1133.8	625.16	144.52	-1090.3	716.3	124.98	-1103.3	524.06	169.46	-1100.9	527.98	293.49	-1158.8	341.22	174.96	-1087.5	257.94	198.13	-1160.6	268.31	193.86	-1093.5	330.93	180.01	-1135.1	96.235	213.89	-1106.9	109.07	300.05	-1180.2	73.64	267.54	-1167.4	41.207	298.25	-1173.4	47.385	234.73	-998.29	40.223	201.24	-979.98	54.028	314.48	-918.11	71.777	265.49	-1268.6	1524.4	300.01	-1314.1	1240	313.05
55	0.225	-1066.3	1234.8	303.83	-1192.2	1470.3	474.91	-1204.4	1496.4	139.22	-1190.6	1788.3	318.97	-1090.3	1014.2	409.25	-1082.3	1027.9	178.62	NaN	NaN	NaN	-1305.4	1005.1	278.27	-1161	898.29	472.15	-1172.3	921.98	106.35	-1192.9	1081.1	455.21	-1178.5	1108.8	148.47	-1306	1004	279.13	-1141	700.64	463.18	-1044.8	615.89	451.39	-1117.5	612.77	448.24	-1062.9	708.37	462.99	-1067.3	516.13	446.38	-1077.3	512.42	311.37	-1232.3	434.66	454.84	-1240.2	345.42	435.77	-1290.2	385.57	448.7	-1183.7	394.98	443.24	-1422.3	283.17	422.4	-1389.8	263.22	343.84	-1469.9	307.54	372.02	-1483	286.11	344.57	-1485.6	292.79	404.72	-1424	129.2	446.66	-1401.8	122.32	332.57	-1353.3	69.523	376.73	-1159.8	710.67	124.89	-1062.6	633.24	150.03	-1131.1	625.6	144.23	-1087	716.4	124.81	-1101.5	524.18	169.3	-1099	528.09	293.4	-1157.7	341.61	174.81	-1086.9	257.96	198.03	-1159.9	268.68	193.78	-1092.6	330.95	179.87	-1134.9	96.331	213.88	-1106.7	109.2	299.96	-1180.2	73.786	267.53	-1167.4	41.32	298.22	-1173.3	47.486	234.7	-998.2	40.151	201.16	-979.79	54.088	314.41	-918.02	71.558	265.42	-1263.4	1525.2	299.77	-1309	1240.9	312.64
56	0.22917	-1061.3	1235.6	303.68	-1187.2	1471	474.69	-1199.2	1497.2	139.06	-1184.9	1789	318.76	-1085.3	1015.2	409.01	-1077.1	1028.6	178.36	NaN	NaN	NaN	-1297.9	1010.6	275.28	-1155.5	899.35	471.98	-1167.6	922.58	106.11	-1188	1082	454.93	-1173.4	1109.5	148.13	-1301	1004.8	278.87	-1132.7	701.8	462.83	-1035.6	618.13	450.76	-1108.2	614.21	447.83	-1054.8	710.43	462.48	-1056.9	518.17	445.77	-1067.3	514.42	310.66	-1220.8	435.24	454.45	-1228.6	346.06	435.34	-1280.5	385.19	448.17	-1172.1	396.16	442.64	-1410.1	282.41	422.15	-1377.8	262.85	343.66	-1459.1	305.56	371.95	-1471.7	283.55	344.63	-1474.2	290.47	404.78	-1408.5	128.74	447.44	-1386.8	121.72	333.24	-1337.8	70.156	377.67	-1156.5	711.3	124.61	-1059.9	633.16	149.85	-1128.4	626.03	143.93	-1083.7	716.5	124.62	-1099.7	524.3	169.14	-1097.1	528.2	293.3	-1156.7	342	174.64	-1086.4	257.98	197.92	-1159.2	269.06	193.67	-1091.8	330.99	179.73	-1134.8	96.427	213.88	-1106.5	109.34	299.87	-1180.1	73.944	267.51	-1167.4	41.437	298.2	-1173.3	47.592	234.66	-998.11	40.077	201.09	-979.6	54.133	314.33	-917.92	71.331	265.35	-1258.2	1526	299.54	-1304	1241.7	312.24
57	0.23333	-1056.3	1236.4	303.51	-1182.1	1471.8	474.48	-1194	1498	138.91	-1179.1	1789.8	318.56	-1080.3	1016.1	408.76	-1072.1	1029.2	178.1	NaN	NaN	NaN	-1290.2	1016	272.23	-1149.9	900.39	471.84	-1163	923.15	105.89	-1182.9	1082.9	454.67	-1168.3	1110.2	147.8	-1295.9	1005.6	278.63	-1124.5	702.97	462.51	-1026.5	620.38	450.09	-1099.1	615.68	447.46	-1046.7	712.5	461.96	-1046.6	520.22	445.13	-1057.4	516.46	309.95	-1209.5	435.77	454.03	-1217	346.6	434.9	-1270.4	384.76	447.64	-1160.5	397.29	442.03	-1397.9	281.38	421.91	-1365.6	262.23	343.49	-1448.2	303.26	371.87	-1460.3	280.68	344.68	-1462.8	287.84	404.85	-1392.9	128.11	448.21	-1371.6	120.92	333.93	-1322	70.729	378.62	-1153.2	711.91	124.33	-1057.3	633.08	149.67	-1125.7	626.45	143.64	-1080.4	716.61	124.43	-1097.9	524.42	168.99	-1095.3	528.29	293.2	-1155.6	342.4	174.45	-1085.9	258	197.83	-1158.5	269.43	193.56	-1090.9	331.03	179.6	-1134.6	96.524	213.89	-1106.3	109.47	299.79	-1180.1	74.111	267.5	-1167.4	41.56	298.18	-1173.2	47.704	234.63	-998.02	40	201.01	-979.43	54.158	314.26	-917.82	71.094	265.28	-1253	1526.7	299.31	-1298.9	1242.5	311.84
58	0.2375	-1051.3	1237.1	303.35	-1177.1	1472.6	474.26	-1188.8	1498.8	138.76	-1173.4	1790.5	318.37	-1075.2	1017.1	408.5	-1067	1029.9	177.83	NaN	NaN	NaN	-1282.5	1021.4	269.18	-1144.4	901.42	471.72	-1158.4	923.69	105.68	-1177.9	1083.8	454.42	-1163.1	1110.8	147.47	-1290.9	1006.3	278.43	-1116.4	704.16	462.23	-1017.4	622.64	449.4	-1090	617.18	447.13	-1038.7	714.57	461.43	-1036.5	522.29	444.46	-1047.7	518.53	309.24	-1198.3	436.21	453.6	-1205.3	347.04	434.47	-1259.9	384.28	447.1	-1149	398.36	441.42	-1385.5	280.08	421.67	-1353.4	261.35	343.31	-1437.1	300.66	371.8	-1448.8	277.52	344.73	-1451.3	284.91	404.94	-1377	127.29	448.98	-1356.2	119.95	334.63	-1305.9	71.241	379.59	-1149.9	712.5	124.07	-1054.6	633	149.51	-1123.1	626.85	143.36	-1077	716.71	124.23	-1096.1	524.54	168.85	-1093.4	528.37	293.1	-1154.5	342.8	174.26	-1085.3	258.03	197.75	-1157.8	269.81	193.44	-1090.1	331.08	179.47	-1134.4	96.62	213.9	-1106.1	109.61	299.7	-1180.1	74.285	267.49	-1167.4	41.685	298.17	-1173.2	47.819	234.6	-997.93	39.922	200.94	-979.27	54.163	314.19	-917.72	70.848	265.21	-1247.8	1527.4	299.08	-1293.9	1243.2	311.45
59	0.24167	-1046.3	1237.9	303.18	-1172.1	1473.3	474.03	-1183.6	1499.6	138.61	-1167.6	1791.2	318.18	-1070.2	1018	408.24	-1062	1030.5	177.55	NaN	NaN	NaN	-1274.7	1026.6	266.14	-1138.9	902.43	471.62	-1153.9	924.21	105.48	-1172.8	1084.7	454.18	-1158	1111.4	147.15	-1285.9	1007	278.26	-1108.3	705.36	461.99	-1008.5	624.9	448.68	-1081	618.7	446.84	-1030.8	716.64	460.91	-1026.5	524.35	443.76	-1038.1	520.62	308.53	-1187.2	436.58	453.14	-1193.6	347.38	434.04	-1249.1	383.72	446.57	-1137.5	399.36	440.8	-1373.1	278.53	421.45	-1341	260.23	343.13	-1425.8	297.74	371.72	-1437.2	274.07	344.76	-1439.7	281.68	405.04	-1361.1	126.31	449.75	-1340.6	118.8	335.35	-1289.6	71.692	380.55	-1146.6	713.08	123.81	-1051.9	632.92	149.37	-1120.4	627.24	143.09	-1073.7	716.8	124.03	-1094.3	524.65	168.71	-1091.6	528.43	293	-1153.4	343.21	174.06	-1084.8	258.05	197.67	-1157	270.19	193.32	-1089.2	331.14	179.36	-1134.2	96.716	213.94	-1105.9	109.74	299.63	-1180.2	74.465	267.49	-1167.3	41.813	298.16	-1173.1	47.937	234.58	-997.84	39.842	200.87	-979.11	54.144	314.12	-917.61	70.593	265.14	-1242.7	1528.1	298.84	-1288.8	1244	311.07
60	0.24583	-1041.3	1238.6	303	-1167.1	1474	473.81	-1178.4	1500.4	138.47	-1161.8	1791.8	317.99	-1065.2	1018.9	407.96	-1057	1031	177.25	NaN	NaN	NaN	-1267.1	1031.5	263.17	-1133.4	903.42	471.54	-1149.3	924.69	105.3	-1167.8	1085.5	453.95	-1152.9	1112	146.84	-1280.9	1007.7	278.11	-1100.3	706.56	461.8	-999.66	627.16	447.94	-1072	620.23	446.59	-1022.9	718.7	460.38	-1016.6	526.41	443.02	-1028.6	522.73	307.82	-1176.3	436.86	452.66	-1181.9	347.63	433.62	-1238.1	383.1	446.03	-1126	400.29	440.17	-1360.5	276.72	421.23	-1328.5	258.86	342.95	-1414.4	294.52	371.64	-1425.4	270.34	344.79	-1428	278.16	405.16	-1344.9	125.17	450.51	-1324.9	117.5	336.07	-1273	72.079	381.52	-1143.3	713.63	123.58	-1049.2	632.83	149.24	-1117.7	627.62	142.84	-1070.3	716.89	123.84	-1092.6	524.75	168.59	-1089.7	528.49	292.91	-1152.2	343.61	173.87	-1084.2	258.07	197.61	-1156.2	270.56	193.2	-1088.3	331.2	179.26	-1134	96.813	213.98	-1105.7	109.87	299.56	-1180.2	74.65	267.49	-1167.3	41.942	298.15	-1173.1	48.057	234.56	-997.75	39.763	200.81	-978.96	54.102	314.06	-917.49	70.329	265.09	-1237.5	1528.8	298.62	-1283.8	1244.7	310.7
61	0.25	-1036.3	1239.3	302.82	-1162.1	1474.7	473.59	-1173.2	1501.1	138.33	-1156	1792.4	317.81	-1060.1	1019.7	407.67	-1052	1031.6	176.94	NaN	NaN	NaN	-1259.5	1036.2	260.28	-1127.9	904.38	471.47	-1144.8	925.13	105.13	-1162.6	1086.3	453.72	-1147.9	1112.5	146.54	-1275.9	1008.4	278	-1092.3	707.76	461.64	-990.93	629.41	447.17	-1063.2	621.76	446.36	-1015.1	720.75	459.84	-1006.9	528.45	442.25	-1019.2	524.85	307.13	-1165.5	437.05	452.16	-1170.2	347.79	433.2	-1226.9	382.39	445.51	-1114.6	401.16	439.54	-1347.8	274.66	421.02	-1315.9	257.26	342.79	-1402.7	291.01	371.57	-1413.5	266.35	344.81	-1416.1	274.36	405.3	-1328.7	123.89	451.27	-1308.9	116.05	336.81	-1256.1	72.406	382.48	-1140.1	714.16	123.36	-1046.5	632.73	149.12	-1115.1	627.97	142.6	-1066.9	716.95	123.65	-1090.8	524.84	168.48	-1087.9	528.53	292.83	-1151.1	344.01	173.69	-1083.7	258.1	197.57	-1155.5	270.93	193.09	-1087.4	331.26	179.17	-1133.8	96.91	214.05	-1105.5	109.99	299.52	-1180.3	74.838	267.5	-1167.3	42.07	298.15	-1173	48.177	234.55	-997.66	39.684	200.75	-978.83	54.035	314.01	-917.37	70.057	265.04	-1232.4	1529.4	298.39	-1278.8	1245.4	310.34
62	0.25417	-1031.3	1240	302.64	-1157.1	1475.4	473.36	-1167.9	1501.9	138.19	-1150.2	1793	317.63	-1055	1020.6	407.37	-1047.1	1032.1	176.61	NaN	NaN	NaN	-1252.2	1040.6	257.5	-1122.4	905.31	471.42	-1140.3	925.54	104.99	-1157.5	1087.1	453.5	-1142.8	1113	146.26	-1270.9	1009	277.93	-1084.4	708.96	461.53	-982.29	631.65	446.38	-1054.4	623.3	446.17	-1007.4	722.78	459.3	-997.23	530.47	441.46	-1010	526.98	306.45	-1154.8	437.14	451.64	-1158.4	347.85	432.8	-1215.5	381.61	445.01	-1103.3	401.95	438.92	-1335.1	272.37	420.82	-1303.2	255.44	342.63	-1390.9	287.2	371.5	-1401.5	262.1	344.83	-1404.1	270.28	405.45	-1312.3	122.47	452	-1292.8	114.48	337.55	-1239	72.672	383.42	-1136.9	714.67	123.16	-1043.8	632.62	149.02	-1112.5	628.31	142.4	-1063.5	716.99	123.47	-1089	524.93	168.39	-1086.1	528.56	292.76	-1149.9	344.41	173.53	-1083.1	258.13	197.54	-1154.7	271.29	192.99	-1086.5	331.31	179.1	-1133.6	97.009	214.14	-1105.3	110.1	299.48	-1180.3	75.031	267.51	-1167.3	42.196	298.15	-1173	48.298	234.55	-997.58	39.607	200.7	-978.7	53.941	313.97	-917.25	69.777	265	-1227.2	1530	298.16	-1273.8	1246.1	309.99
